<?xml version="1.0" standalone="no"?>
<!DOCTYPE svg PUBLIC "-//W3C//DTD SVG 20010904//EN"
 "http://www.w3.org/TR/2001/REC-SVG-20010904/DTD/svg10.dtd">
<svg version="1.0" xmlns="http://www.w3.org/2000/svg"
 width="6198.000000pt" height="2663.000000pt" viewBox="0 0 6198.000000 2663.000000"
 preserveAspectRatio="xMidYMid meet">

<g transform="translate(0.000000,2663.000000) scale(0.100000,-0.100000)"
fill="#ffffff" stroke="none">
<path d="M47715 19180 c-110 -14 -192 -38 -300 -90 -213 -103 -361 -281 -438
-525 -56 -178 -52 175 -52 -5245 0 -4797 1 -5019 18 -5099 44 -204 119 -343
251 -469 140 -131 309 -202 531 -222 149 -13 5750 -13 5900 0 144 13 249 41
361 96 164 80 289 205 370 369 57 115 84 222 91 360 22 441 -243 784 -687 891
-71 17 -205 18 -2532 21 l-2458 3 -3 4543 -2 4542 -22 90 c-46 198 -115 333
-236 462 -167 176 -363 263 -627 277 -52 2 -126 1 -165 -4z"/>
<path d="M26491 19110 c-180 -38 -334 -122 -457 -251 -108 -114 -174 -233
-216 -391 l-23 -83 -3 -2690 c-3 -2705 1 -3136 32 -3470 140 -1480 698 -2766
1606 -3699 395 -405 811 -709 1305 -951 152 -75 479 -215 501 -215 3 0 3 294
1 652 -4 615 -5 659 -24 748 -76 345 -231 635 -469 875 -199 200 -325 351
-467 561 -358 528 -597 1164 -706 1885 -58 381 -54 184 -61 3389 -6 3332 4
2980 -90 3175 -55 113 -130 209 -222 285 -72 58 -234 142 -323 166 -70 19
-316 28 -384 14z"/>
<path d="M35071 19110 c-378 -80 -649 -375 -691 -755 -6 -58 -10 -1094 -10
-2911 0 -1838 -4 -2867 -10 -2955 -61 -798 -286 -1538 -651 -2139 -145 -239
-302 -440 -524 -670 -77 -80 -165 -179 -196 -220 -151 -202 -252 -426 -310
-685 -22 -97 -23 -119 -26 -772 -2 -370 -2 -673 1 -673 19 0 726 361 831 424
629 380 1153 887 1580 1531 149 225 234 374 365 640 381 777 596 1624 650
2569 14 246 14 5817 0 5906 -52 326 -293 598 -610 690 -85 25 -320 36 -399 20z"/>
<path d="M8165 19083 c-329 -70 -553 -298 -619 -628 -15 -73 -16 -537 -14
-5175 l3 -5095 23 -74 c100 -321 306 -506 642 -573 53 -11 641 -13 3065 -13
l3000 0 95 21 c443 99 706 441 687 894 -10 241 -79 402 -242 565 -126 126
-254 195 -445 241 -71 17 -203 18 -2532 21 l-2458 3 0 1615 0 1615 2063 3
c2244 3 2086 -1 2250 56 257 89 450 294 527 561 31 107 39 325 15 441 -68 339
-323 587 -680 660 -86 18 -180 19 -2132 19 l-2043 0 0 1560 0 1560 2463 3
c2330 2 2466 4 2537 21 355 85 591 322 662 664 26 126 21 318 -12 432 -47 166
-147 319 -275 423 -75 60 -235 140 -340 170 l-80 22 -3045 2 c-2675 1 -3053 0
-3115 -14z"/>
<path d="M17565 19083 c-327 -70 -551 -296 -619 -625 -15 -70 -16 -552 -16
-5121 0 -4388 2 -5055 15 -5128 55 -317 223 -549 488 -674 194 -92 417 -116
638 -70 164 35 304 110 419 224 158 157 241 342 269 595 8 64 11 748 11 2100
l0 2006 2073 2 2072 3 88 28 c327 102 524 309 604 632 25 104 23 324 -6 430
-81 306 -304 524 -626 612 l-100 28 -2052 3 -2053 2 0 1615 0 1615 2458 2
2457 3 97 27 c346 95 562 318 634 652 20 93 21 290 1 382 -35 165 -106 295
-226 415 -96 96 -186 154 -307 198 -180 66 73 61 -3241 60 -2631 -1 -3017 -3
-3078 -16z"/>
<path d="M38420 19085 c-88 -18 -182 -53 -265 -100 -88 -49 -210 -169 -263
-260 -52 -89 -98 -226 -111 -335 -15 -118 -15 -10031 -1 -10150 13 -102 64
-257 111 -337 19 -32 72 -96 119 -143 136 -137 296 -208 516 -230 136 -13
5801 -13 5950 0 454 40 762 328 815 761 51 417 -184 793 -576 924 -157 53 21
49 -2642 52 l-2463 3 0 1615 0 1615 2068 3 2067 2 83 23 c332 89 549 299 633
613 19 69 23 111 23 234 1 180 -13 244 -84 390 -107 221 -293 371 -555 447
l-80 23 -2075 5 -2075 5 -3 1557 -2 1558 2467 3 c2686 3 2492 -1 2653 55 277
96 471 311 542 599 31 126 31 325 0 441 -82 309 -295 520 -617 614 l-80 23
-3045 2 c-2486 1 -3057 -1 -3110 -12z"/>
<path d="M30780 13935 c-330 -68 -586 -309 -672 -635 l-23 -85 0 -5265 c0
-4986 1 -5269 18 -5333 67 -263 225 -461 464 -581 109 -54 201 -77 339 -83
144 -7 249 11 367 62 119 51 183 93 267 175 124 121 200 252 246 425 18 68 19
232 22 5270 2 3672 0 5228 -8 5295 -51 446 -419 774 -863 769 -51 0 -121 -7
-157 -14z"/>
</g>
</svg>
